<?xml version="1.0" encoding="utf-8"?>
<!-- Generator: Adobe Illustrator 19.0.0, SVG Export Plug-In . SVG Version: 6.00 Build 0)  -->
<svg version="1.1" xmlns="http://www.w3.org/2000/svg" xmlns:xlink="http://www.w3.org/1999/xlink" x="0px" y="0px"
	 viewBox="0 0 1008 444" style="enable-background:new 0 0 1008 444;" xml:space="preserve">
<style type="text/css">
	.st0{display:none;}
	.st1{display:inline;}
	.st2{fill:#636363;}
	.st3{fill:#8E8E8E;}
	.st4{fill:#A0A0A0;}
	.st5{fill:#AEAEAE;}
	.st6{fill:#D1D1D1;}
	.st7{fill:#3F3F3F;}
</style>
<g id="Layer_1" class="st0">
	<g id="XMLID_305_" class="st1">
		<rect id="XMLID_323_" x="335.3" y="203.9" class="st2" width="12.4" height="1.6"/>
		<path id="XMLID_322_" class="st2" d="M355.7,249c0,14.5-11.3,26.3-25.5,27.2v1.7c15,0,27.3-12.2,27.3-27.3v-53.1h-1.7V249z"/>
		<path id="XMLID_321_" class="st2" d="M355,177.9c0.8,1,1.2,2.3,1.2,3.6c0,3.4-2.7,6.1-6.1,6.1c-1.2,0-2.3-0.3-3.2-0.9
			c1.1,1.5,2.9,2.5,4.9,2.5c3.4,0,6.1-2.7,6.1-6.1C357.9,180.9,356.7,178.9,355,177.9z"/>
		<path id="XMLID_320_" class="st2" d="M585.1,212.7c3.5-5.3,9.6-8.6,16-8.6c4.6,0,8.9,1.6,12.2,4.3c-3.5-3.6-8.4-5.9-13.9-5.9
			c-6.3,0-12.5,3.3-16,8.6v29.8h1.7V212.7z"/>
		<path id="XMLID_319_" class="st2" d="M535.5,204c4.6,0,8.8,1.6,12.2,4.3c-3.5-3.7-8.5-5.9-13.9-5.9c-9.4,0-17.3,6.7-18.9,15.9h2.1
			C519.2,209.9,526.7,204,535.5,204z"/>
		<path id="XMLID_318_" class="st2" d="M585.1,199V174h-1.7v26.2C584,199.8,584.5,199.4,585.1,199z"/>
		<path id="XMLID_317_" class="st2" d="M560.7,226.1h-45.6c1,4.3,3.4,7.9,6.6,10.5c-2.3-2.4-4.1-5.5-4.8-8.9h45.6
			c0.2-0.9,0.4-2.8,0.4-4.5c0-8.3-3.7-15.8-9.6-20.8c4.9,4.9,7.9,11.7,7.9,19.2C561,223.3,560.9,225.2,560.7,226.1z"/>
		<path id="XMLID_316_" class="st2" d="M618.8,202.6c4.9,4.9,7.9,11.6,7.9,19.1c0,15-12.2,27.3-27.3,27.3h-51.2H546h-12.3
			c-6.7,0-12.9-2.4-17.6-6.5c4.9,5,11.8,8.1,19.4,8.1h12.3h2.2h51.2c15,0,27.3-12.2,27.3-27.3C628.4,215,624.6,207.6,618.8,202.6z"
			/>
		<path id="XMLID_315_" class="st2" d="M657.9,248.9c-6.7,0-12.9-2.4-17.6-6.5c4.9,5,11.8,8.1,19.4,8.1h14.5v-8h-1.7v6.4H657.9z"/>
		<path id="XMLID_314_" class="st2" d="M659.6,204c4.6,0,8.8,1.6,12.2,4.3c-3.5-3.7-8.5-5.9-13.9-5.9c-9.4,0-17.3,6.7-18.9,15.9h2.1
			C643.3,209.9,650.8,204,659.6,204z"/>
		<path id="XMLID_313_" class="st2" d="M686.5,227.7c0.2-0.9,0.4-2.8,0.4-4.5c0-8.3-3.7-15.8-9.6-20.8c4.9,4.9,7.9,11.7,7.9,19.2
			c0,1.6-0.1,3.5-0.4,4.5h-45.6c1,4.3,3.4,7.9,6.6,10.5c-2.3-2.4-4.1-5.5-4.8-8.9H686.5z"/>
		<path id="XMLID_312_" class="st2" d="M414.7,226.1h-45.6c1,4.3,3.4,7.9,6.6,10.5c-2.3-2.4-4.1-5.5-4.8-8.9h45.6
			c0.2-0.9,0.4-2.8,0.4-4.5c0-8.3-3.7-15.8-9.6-20.8c4.9,4.9,7.9,11.7,7.9,19.2C415.1,223.3,415,225.2,414.7,226.1z"/>
		<path id="XMLID_311_" class="st2" d="M389.6,204c4.6,0,8.8,1.6,12.2,4.3c-3.5-3.7-8.5-5.9-13.9-5.9c-9.4,0-17.3,6.7-18.9,15.9h2.1
			C373.2,209.9,380.7,204,389.6,204z"/>
		<path id="XMLID_310_" class="st2" d="M498.4,221.9c2.7,3,4.3,6.9,4.3,10.9c0,8.7-7.9,16.1-16.7,16.1h-35.4c3.5-1.8,6.3-4.6,8.2-8
			h0.2c1-2,1.5-4.2,1.5-6.5c0-4.8-2.3-9.5-6.1-12.5c2.7,3,4.3,6.9,4.3,10.9c0,8.7-7.9,16.1-16.7,16.1h-14.5h-5.5h-34.3
			c-6.7,0-12.9-2.4-17.6-6.5c4.9,5,11.8,8.1,19.4,8.1h34.3h5.5h14h0.5h43.9c8.8,0,16.7-7.4,16.7-16.1
			C504.5,229.6,502.2,224.9,498.4,221.9z"/>
		<path id="XMLID_309_" class="st2" d="M437.2,202.3c-6.7,0-10.7,3.1-10.7,7.3c0,2.9,1.1,4.6,2.9,5.7c-0.7-1-1.1-2.3-1.1-4.1
			c0-4.2,4-7.3,10.7-7.3c4.5,0,10.2,0.8,16.2,3.3l3.1-7.4c-0.7-0.3-1.4-0.5-2.1-0.8l-2.7,6.6C447.4,203.1,441.7,202.3,437.2,202.3z"
			/>
		<path id="XMLID_308_" class="st2" d="M481.1,202.3c-6.7,0-10.7,3.1-10.7,7.3c0,2.9,1.1,4.6,2.9,5.7c-0.7-1-1.1-2.3-1.1-4.1
			c0-4.2,4-7.3,10.7-7.3c4.5,0,10.2,0.8,16.2,3.3l3.1-7.4c-0.7-0.3-1.4-0.5-2.1-0.8l-2.7,6.6C491.4,203.1,485.6,202.3,481.1,202.3z"
			/>
		<path id="XMLID_307_" class="st2" d="M442.7,224.8c-6,0-6,0-6,0c-5.4-0.1-9.9-1.4-13-3.8c3.1,3.4,8.2,5.3,14.7,5.4c0,0,0,0,6,0
			c1.8,0,3.2,0.5,4.4,1.3C447.5,226.1,445.5,224.8,442.7,224.8z"/>
		<path id="XMLID_306_" class="st2" d="M486.7,224.8c-6,0-6,0-6,0c-5.4-0.1-9.9-1.4-13-3.8c3.1,3.4,8.2,5.3,14.7,5.4c0,0,0,0,6,0
			c1.8,0,3.2,0.5,4.4,1.3C491.5,226.1,489.4,224.8,486.7,224.8z"/>
	</g>
	<g id="XMLID_286_" class="st1">
		<rect id="XMLID_304_" x="336.8" y="205.4" class="st3" width="12.4" height="1.6"/>
		<path id="XMLID_303_" class="st3" d="M357.1,250.5c0,14.5-11.3,26.3-25.5,27.2v1.7c15,0,27.3-12.2,27.3-27.3V199h-1.7V250.5z"/>
		<path id="XMLID_302_" class="st3" d="M356.4,179.3c0.8,1,1.2,2.3,1.2,3.6c0,3.4-2.7,6.1-6.1,6.1c-1.2,0-2.3-0.3-3.2-0.9
			c1.1,1.5,2.9,2.5,4.9,2.5c3.4,0,6.1-2.7,6.1-6.1C359.3,182.3,358.2,180.4,356.4,179.3z"/>
		<path id="XMLID_301_" class="st3" d="M586.6,214.1c3.5-5.3,9.6-8.6,16-8.6c4.6,0,8.9,1.6,12.2,4.3c-3.5-3.6-8.4-5.9-13.9-5.9
			c-6.3,0-12.5,3.3-16,8.6v29.8h1.7V214.1z"/>
		<path id="XMLID_300_" class="st3" d="M536.9,205.4c4.6,0,8.8,1.6,12.2,4.3c-3.5-3.7-8.5-5.9-13.9-5.9c-9.4,0-17.3,6.7-18.9,15.9
			h2.1C520.6,211.4,528.1,205.4,536.9,205.4z"/>
		<path id="XMLID_299_" class="st3" d="M586.6,200.4v-24.9h-1.7v26.2C585.4,201.2,586,200.8,586.6,200.4z"/>
		<path id="XMLID_298_" class="st3" d="M562.1,227.6h-45.6c1,4.3,3.4,7.9,6.6,10.5c-2.3-2.4-4.1-5.5-4.8-8.9h45.6
			c0.2-0.9,0.4-2.8,0.4-4.5c0-8.3-3.7-15.8-9.6-20.8c4.9,4.9,7.9,11.7,7.9,19.2C562.5,224.7,562.3,226.6,562.1,227.6z"/>
		<path id="XMLID_297_" class="st3" d="M620.2,204.1c4.9,4.9,7.9,11.6,7.9,19.1c0,15-12.2,27.3-27.3,27.3h-51.2h-2.2h-12.3
			c-6.7,0-12.9-2.4-17.6-6.5c4.9,5,11.8,8.1,19.4,8.1h12.3h2.2h51.2c15,0,27.3-12.2,27.3-27.3C629.8,216.5,626.1,209,620.2,204.1z"
			/>
		<path id="XMLID_296_" class="st3" d="M659.3,250.4c-6.7,0-12.9-2.4-17.6-6.5c4.9,5,11.8,8.1,19.4,8.1h14.5v-8h-1.7v6.4H659.3z"/>
		<path id="XMLID_295_" class="st3" d="M661.1,205.4c4.6,0,8.8,1.6,12.2,4.3c-3.5-3.7-8.5-5.9-13.9-5.9c-9.4,0-17.3,6.7-18.9,15.9
			h2.1C644.7,211.4,652.2,205.4,661.1,205.4z"/>
		<path id="XMLID_294_" class="st3" d="M688,229.2c0.2-0.9,0.4-2.8,0.4-4.5c0-8.3-3.7-15.8-9.6-20.8c4.9,4.9,7.9,11.7,7.9,19.2
			c0,1.6-0.1,3.5-0.4,4.5h-45.6c1,4.3,3.4,7.9,6.6,10.5c-2.3-2.4-4.1-5.5-4.8-8.9H688z"/>
		<path id="XMLID_293_" class="st3" d="M416.2,227.6h-45.6c1,4.3,3.4,7.9,6.6,10.5c-2.3-2.4-4.1-5.5-4.8-8.9h45.6
			c0.2-0.9,0.4-2.8,0.4-4.5c0-8.3-3.7-15.8-9.6-20.8c4.9,4.9,7.9,11.7,7.9,19.2C416.5,224.7,416.4,226.6,416.2,227.6z"/>
		<path id="XMLID_292_" class="st3" d="M391,205.4c4.6,0,8.8,1.6,12.2,4.3c-3.5-3.7-8.5-5.9-13.9-5.9c-9.4,0-17.3,6.7-18.9,15.9h2.1
			C374.7,211.4,382.2,205.4,391,205.4z"/>
		<path id="XMLID_291_" class="st3" d="M499.8,223.3c2.7,3,4.3,6.9,4.3,10.9c0,8.7-7.9,16.1-16.7,16.1h-35.4c3.5-1.8,6.3-4.6,8.2-8
			h0.2c1-2,1.5-4.2,1.5-6.5c0-4.8-2.3-9.5-6.1-12.5c2.7,3,4.3,6.9,4.3,10.9c0,8.7-7.9,16.1-16.7,16.1h-14.5h-5.5h-34.3
			c-6.7,0-12.9-2.4-17.6-6.5c4.9,5,11.8,8.1,19.4,8.1h34.3h5.5h14h0.5h43.9c8.8,0,16.7-7.4,16.7-16.1
			C505.9,231,503.6,226.4,499.8,223.3z"/>
		<path id="XMLID_290_" class="st3" d="M438.6,203.7c-6.7,0-10.7,3.1-10.7,7.3c0,2.9,1.1,4.6,2.9,5.7c-0.7-1-1.1-2.3-1.1-4.1
			c0-4.2,4-7.3,10.7-7.3c4.5,0,10.2,0.8,16.2,3.3l3.1-7.4c-0.7-0.3-1.4-0.5-2.1-0.8l-2.7,6.6C448.8,204.5,443.1,203.7,438.6,203.7z"
			/>
		<path id="XMLID_289_" class="st3" d="M482.6,203.7c-6.7,0-10.7,3.1-10.7,7.3c0,2.9,1.1,4.6,2.9,5.7c-0.7-1-1.1-2.3-1.1-4.1
			c0-4.2,4-7.3,10.7-7.3c4.5,0,10.2,0.8,16.2,3.3l3.1-7.4c-0.7-0.3-1.4-0.5-2.1-0.8l-2.7,6.6C492.8,204.5,487,203.7,482.6,203.7z"/>
		<path id="XMLID_288_" class="st3" d="M444.1,226.3c-6,0-6,0-6,0c-5.4-0.1-9.9-1.4-13-3.8c3.1,3.4,8.2,5.3,14.7,5.4c0,0,0,0,6,0
			c1.8,0,3.2,0.5,4.4,1.3C449,227.5,446.9,226.3,444.1,226.3z"/>
		<path id="XMLID_287_" class="st3" d="M488.1,226.3c-6,0-6,0-6,0c-5.4-0.1-9.9-1.4-13-3.8c3.1,3.4,8.2,5.3,14.7,5.4c0,0,0,0,6,0
			c1.8,0,3.2,0.5,4.4,1.3C492.9,227.5,490.9,226.3,488.1,226.3z"/>
	</g>
	<g id="XMLID_267_" class="st1">
		<rect id="XMLID_285_" x="338.2" y="206.8" class="st4" width="12.4" height="1.6"/>
		<path id="XMLID_284_" class="st4" d="M358.6,251.9c0,14.5-11.3,26.3-25.5,27.2v1.7c15,0,27.3-12.2,27.3-27.3v-53.1h-1.7V251.9z"/>
		<path id="XMLID_283_" class="st4" d="M357.8,180.7c0.8,1,1.2,2.3,1.2,3.6c0,3.4-2.7,6.1-6.1,6.1c-1.2,0-2.3-0.3-3.2-0.9
			c1.1,1.5,2.9,2.5,4.9,2.5c3.4,0,6.1-2.7,6.1-6.1C360.8,183.8,359.6,181.8,357.8,180.7z"/>
		<path id="XMLID_282_" class="st4" d="M588,215.6c3.5-5.3,9.6-8.6,16-8.6c4.6,0,8.9,1.6,12.2,4.3c-3.5-3.6-8.4-5.9-13.9-5.9
			c-6.3,0-12.5,3.3-16,8.6v29.8h1.7V215.6z"/>
		<path id="XMLID_281_" class="st4" d="M538.4,206.9c4.6,0,8.8,1.6,12.2,4.3c-3.5-3.7-8.5-5.9-13.9-5.9c-9.4,0-17.3,6.7-18.9,15.9
			h2.1C522,212.8,529.5,206.9,538.4,206.9z"/>
		<path id="XMLID_280_" class="st4" d="M588,201.8v-24.9h-1.7v26.2C586.8,202.7,587.4,202.2,588,201.8z"/>
		<path id="XMLID_279_" class="st4" d="M563.5,229H518c1,4.3,3.4,7.9,6.6,10.5c-2.3-2.4-4.1-5.5-4.8-8.9h45.6
			c0.2-0.9,0.4-2.8,0.4-4.5c0-8.3-3.7-15.8-9.6-20.8c4.9,4.9,7.9,11.7,7.9,19.2C563.9,226.2,563.8,228.1,563.5,229z"/>
		<path id="XMLID_278_" class="st4" d="M621.6,205.5c4.9,4.9,7.9,11.6,7.9,19.1c0,15-12.2,27.3-27.3,27.3h-51.2h-2.2h-12.3
			c-6.7,0-12.9-2.4-17.6-6.5c4.9,5,11.8,8.1,19.4,8.1h12.3h2.2H604c15,0,27.3-12.2,27.3-27.3C631.2,217.9,627.5,210.5,621.6,205.5z"
			/>
		<path id="XMLID_277_" class="st4" d="M660.8,251.8c-6.7,0-12.9-2.4-17.6-6.5c4.9,5,11.8,8.1,19.4,8.1h14.5v-8h-1.7v6.4H660.8z"/>
		<path id="XMLID_276_" class="st4" d="M662.5,206.9c4.6,0,8.8,1.6,12.2,4.3c-3.5-3.7-8.5-5.9-13.9-5.9c-9.4,0-17.3,6.7-18.9,15.9
			h2.1C646.2,212.8,653.7,206.9,662.5,206.9z"/>
		<path id="XMLID_275_" class="st4" d="M689.4,230.6c0.2-0.9,0.4-2.8,0.4-4.5c0-8.3-3.7-15.8-9.6-20.8c4.9,4.9,7.9,11.7,7.9,19.2
			c0,1.6-0.1,3.5-0.4,4.5h-45.6c1,4.3,3.4,7.9,6.6,10.5c-2.3-2.4-4.1-5.5-4.8-8.9H689.4z"/>
		<path id="XMLID_274_" class="st4" d="M417.6,229H372c1,4.3,3.4,7.9,6.6,10.5c-2.3-2.4-4.1-5.5-4.8-8.9h45.6
			c0.2-0.9,0.4-2.8,0.4-4.5c0-8.3-3.7-15.8-9.6-20.8c4.9,4.9,7.9,11.7,7.9,19.2C418,226.2,417.8,228.1,417.6,229z"/>
		<path id="XMLID_273_" class="st4" d="M392.4,206.9c4.6,0,8.8,1.6,12.2,4.3c-3.5-3.7-8.5-5.9-13.9-5.9c-9.4,0-17.3,6.7-18.9,15.9
			h2.1C376.1,212.8,383.6,206.9,392.4,206.9z"/>
		<path id="XMLID_272_" class="st4" d="M501.3,224.8c2.7,3,4.3,6.9,4.3,10.9c0,8.7-7.9,16.1-16.7,16.1h-35.4c3.5-1.8,6.3-4.6,8.2-8
			h0.2c1-2,1.5-4.2,1.5-6.5c0-4.8-2.3-9.5-6.1-12.5c2.7,3,4.3,6.9,4.3,10.9c0,8.7-7.9,16.1-16.7,16.1h-14.5H425h-34.3
			c-6.7,0-12.9-2.4-17.6-6.5c4.9,5,11.8,8.1,19.4,8.1h34.3h5.5h14h0.5h43.9c8.8,0,16.7-7.4,16.7-16.1
			C507.4,232.5,505.1,227.8,501.3,224.8z"/>
		<path id="XMLID_271_" class="st4" d="M440.1,205.2c-6.7,0-10.7,3.1-10.7,7.3c0,2.9,1.1,4.6,2.9,5.7c-0.7-1-1.1-2.3-1.1-4.1
			c0-4.2,4-7.3,10.7-7.3c4.5,0,10.2,0.8,16.2,3.3l3.1-7.4c-0.7-0.3-1.4-0.5-2.1-0.8l-2.7,6.6C450.3,206,444.5,205.2,440.1,205.2z"/>
		<path id="XMLID_270_" class="st4" d="M484,205.2c-6.7,0-10.7,3.1-10.7,7.3c0,2.9,1.1,4.6,2.9,5.7c-0.7-1-1.1-2.3-1.1-4.1
			c0-4.2,4-7.3,10.7-7.3c4.5,0,10.2,0.8,16.2,3.3l3.1-7.4c-0.7-0.3-1.4-0.5-2.1-0.8l-2.7,6.6C494.2,206,488.5,205.2,484,205.2z"/>
		<path id="XMLID_269_" class="st4" d="M445.6,227.7c-6,0-6,0-6,0c-5.4-0.1-9.9-1.4-13-3.8c3.1,3.4,8.2,5.3,14.7,5.4c0,0,0,0,6,0
			c1.8,0,3.2,0.5,4.4,1.3C450.4,228.9,448.4,227.7,445.6,227.7z"/>
		<path id="XMLID_268_" class="st4" d="M489.5,227.7c-6,0-6,0-6,0c-5.4-0.1-9.9-1.4-13-3.8c3.1,3.4,8.2,5.3,14.7,5.4c0,0,0,0,6,0
			c1.8,0,3.2,0.5,4.4,1.3C494.4,228.9,492.3,227.7,489.5,227.7z"/>
	</g>
	<g id="XMLID_248_" class="st1">
		<rect id="XMLID_266_" x="339.6" y="208.2" class="st5" width="12.4" height="1.6"/>
		<path id="XMLID_265_" class="st5" d="M360,253.3c0,14.5-11.3,26.3-25.5,27.2v1.7c15,0,27.3-12.2,27.3-27.3v-53.1H360V253.3z"/>
		<path id="XMLID_264_" class="st5" d="M359.3,182.2c0.8,1,1.2,2.3,1.2,3.6c0,3.4-2.7,6.1-6.1,6.1c-1.2,0-2.3-0.3-3.2-0.9
			c1.1,1.5,2.9,2.5,4.9,2.5c3.4,0,6.1-2.7,6.1-6.1C362.2,185.2,361,183.3,359.3,182.2z"/>
		<path id="XMLID_263_" class="st5" d="M589.4,217c3.5-5.3,9.6-8.6,16-8.6c4.6,0,8.9,1.6,12.2,4.3c-3.5-3.6-8.4-5.9-13.9-5.9
			c-6.3,0-12.5,3.3-16,8.6v29.8h1.7V217z"/>
		<path id="XMLID_262_" class="st5" d="M539.8,208.3c4.6,0,8.8,1.6,12.2,4.3c-3.5-3.7-8.5-5.9-13.9-5.9c-9.4,0-17.3,6.7-18.9,15.9
			h2.1C523.5,214.2,531,208.3,539.8,208.3z"/>
		<path id="XMLID_261_" class="st5" d="M589.4,203.3v-24.9h-1.7v26.2C588.3,204.1,588.8,203.7,589.4,203.3z"/>
		<path id="XMLID_260_" class="st5" d="M565,230.4h-45.6c1,4.3,3.4,7.9,6.6,10.5c-2.3-2.4-4.1-5.5-4.8-8.9h45.6
			c0.2-0.9,0.4-2.8,0.4-4.5c0-8.3-3.7-15.8-9.6-20.8c4.9,4.9,7.9,11.7,7.9,19.2C565.3,227.6,565.2,229.5,565,230.4z"/>
		<path id="XMLID_259_" class="st5" d="M623.1,206.9c4.9,4.9,7.9,11.6,7.9,19.1c0,15-12.2,27.3-27.3,27.3h-51.2h-2.2h-12.3
			c-6.7,0-12.9-2.4-17.6-6.5c4.9,5,11.8,8.1,19.4,8.1h12.3h2.2h51.2c15,0,27.3-12.2,27.3-27.3C632.7,219.3,628.9,211.9,623.1,206.9z
			"/>
		<path id="XMLID_258_" class="st5" d="M662.2,253.2c-6.7,0-12.9-2.4-17.6-6.5c4.9,5,11.8,8.1,19.4,8.1h14.5v-8h-1.7v6.4H662.2z"/>
		<path id="XMLID_257_" class="st5" d="M663.9,208.3c4.6,0,8.8,1.6,12.2,4.3c-3.5-3.7-8.5-5.9-13.9-5.9c-9.4,0-17.3,6.7-18.9,15.9
			h2.1C647.6,214.2,655.1,208.3,663.9,208.3z"/>
		<path id="XMLID_256_" class="st5" d="M690.8,232c0.2-0.9,0.4-2.8,0.4-4.5c0-8.3-3.7-15.8-9.6-20.8c4.9,4.9,7.9,11.7,7.9,19.2
			c0,1.6-0.1,3.5-0.4,4.5h-45.6c1,4.3,3.4,7.9,6.6,10.5c-2.3-2.4-4.1-5.5-4.8-8.9H690.8z"/>
		<path id="XMLID_255_" class="st5" d="M419,230.4h-45.6c1,4.3,3.4,7.9,6.6,10.5c-2.3-2.4-4.1-5.5-4.8-8.9h45.6
			c0.2-0.9,0.4-2.8,0.4-4.5c0-8.3-3.7-15.8-9.6-20.8c4.9,4.9,7.9,11.7,7.9,19.2C419.4,227.6,419.3,229.5,419,230.4z"/>
		<path id="XMLID_254_" class="st5" d="M393.9,208.3c4.6,0,8.8,1.6,12.2,4.3c-3.5-3.7-8.5-5.9-13.9-5.9c-9.4,0-17.3,6.7-18.9,15.9
			h2.1C377.5,214.2,385,208.3,393.9,208.3z"/>
		<path id="XMLID_253_" class="st5" d="M502.7,226.2c2.7,3,4.3,6.9,4.3,10.9c0,8.7-7.9,16.1-16.7,16.1H455c3.5-1.8,6.3-4.6,8.2-8
			h0.2c1-2,1.5-4.2,1.5-6.5c0-4.8-2.3-9.5-6.1-12.5c2.7,3,4.3,6.9,4.3,10.9c0,8.7-7.9,16.1-16.7,16.1H432h-5.5h-34.3
			c-6.7,0-12.9-2.4-17.6-6.5c4.9,5,11.8,8.1,19.4,8.1h34.3h5.5h14h0.5h43.9c8.8,0,16.7-7.4,16.7-16.1
			C508.8,233.9,506.5,229.2,502.7,226.2z"/>
		<path id="XMLID_252_" class="st5" d="M441.5,206.6c-6.7,0-10.7,3.1-10.7,7.3c0,2.9,1.1,4.6,2.9,5.7c-0.7-1-1.1-2.3-1.1-4.1
			c0-4.2,4-7.3,10.7-7.3c4.5,0,10.2,0.8,16.2,3.3l3.1-7.4c-0.7-0.3-1.4-0.5-2.1-0.8l-2.7,6.6C451.7,207.4,446,206.6,441.5,206.6z"/>
		<path id="XMLID_251_" class="st5" d="M485.4,206.6c-6.7,0-10.7,3.1-10.7,7.3c0,2.9,1.1,4.6,2.9,5.7c-0.7-1-1.1-2.3-1.1-4.1
			c0-4.2,4-7.3,10.7-7.3c4.5,0,10.2,0.8,16.2,3.3l3.1-7.4c-0.7-0.3-1.4-0.5-2.1-0.8l-2.7,6.6C495.7,207.4,489.9,206.6,485.4,206.6z"
			/>
		<path id="XMLID_250_" class="st5" d="M447,229.1c-6,0-6,0-6,0c-5.4-0.1-9.9-1.4-13-3.8c3.1,3.4,8.2,5.3,14.7,5.4c0,0,0,0,6,0
			c1.8,0,3.2,0.5,4.4,1.3C451.8,230.4,449.8,229.1,447,229.1z"/>
		<path id="XMLID_249_" class="st5" d="M491,229.1c-6,0-6,0-6,0c-5.4-0.1-9.9-1.4-13-3.8c3.1,3.4,8.2,5.3,14.7,5.4c0,0,0,0,6,0
			c1.8,0,3.2,0.5,4.4,1.3C495.8,230.4,493.7,229.1,491,229.1z"/>
	</g>
	<g id="XMLID_229_" class="st1">
		<rect id="XMLID_247_" x="341.1" y="209.7" class="st6" width="12.4" height="1.6"/>
		<path id="XMLID_246_" class="st6" d="M361.4,254.8c0,14.5-11.3,26.3-25.5,27.2v1.7c15,0,27.3-12.2,27.3-27.3v-53.1h-1.7V254.8z"/>
		<path id="XMLID_245_" class="st6" d="M360.7,183.6c0.8,1,1.2,2.3,1.2,3.6c0,3.4-2.7,6.1-6.1,6.1c-1.2,0-2.3-0.3-3.2-0.9
			c1.1,1.5,2.9,2.5,4.9,2.5c3.4,0,6.1-2.7,6.1-6.1C363.6,186.6,362.5,184.7,360.7,183.6z"/>
		<path id="XMLID_244_" class="st6" d="M590.9,218.4c3.5-5.3,9.6-8.6,16-8.6c4.6,0,8.9,1.6,12.2,4.3c-3.5-3.6-8.4-5.9-13.9-5.9
			c-6.3,0-12.5,3.3-16,8.6v29.8h1.7V218.4z"/>
		<path id="XMLID_243_" class="st6" d="M541.2,209.7c4.6,0,8.8,1.6,12.2,4.3c-3.5-3.7-8.5-5.9-13.9-5.9c-9.4,0-17.3,6.7-18.9,15.9
			h2.1C524.9,215.7,532.4,209.7,541.2,209.7z"/>
		<path id="XMLID_242_" class="st6" d="M590.9,204.7v-24.9h-1.7V206C589.7,205.6,590.3,205.1,590.9,204.7z"/>
		<path id="XMLID_241_" class="st6" d="M566.4,231.9h-45.6c1,4.3,3.4,7.9,6.6,10.5c-2.3-2.4-4.1-5.5-4.8-8.9h45.6
			c0.2-0.9,0.4-2.8,0.4-4.5c0-8.3-3.7-15.8-9.6-20.8c4.9,4.9,7.9,11.7,7.9,19.2C566.8,229,566.6,230.9,566.4,231.9z"/>
		<path id="XMLID_240_" class="st6" d="M624.5,208.4c4.9,4.9,7.9,11.6,7.9,19.1c0,15-12.2,27.3-27.3,27.3H554h-2.2h-12.3
			c-6.7,0-12.9-2.4-17.6-6.5c4.9,5,11.8,8.1,19.4,8.1h12.3h2.2h51.2c15,0,27.3-12.2,27.3-27.3C634.1,220.8,630.4,213.3,624.5,208.4z
			"/>
		<path id="XMLID_239_" class="st6" d="M663.6,254.7c-6.7,0-12.9-2.4-17.6-6.5c4.9,5,11.8,8.1,19.4,8.1h14.5v-8h-1.7v6.4H663.6z"/>
		<path id="XMLID_238_" class="st6" d="M665.4,209.7c4.6,0,8.8,1.6,12.2,4.3c-3.5-3.7-8.5-5.9-13.9-5.9c-9.4,0-17.3,6.7-18.9,15.9
			h2.1C649,215.7,656.5,209.7,665.4,209.7z"/>
		<path id="XMLID_237_" class="st6" d="M692.3,233.5c0.2-0.9,0.4-2.8,0.4-4.5c0-8.3-3.7-15.8-9.6-20.8c4.9,4.9,7.9,11.7,7.9,19.2
			c0,1.6-0.1,3.5-0.4,4.5h-45.6c1,4.3,3.4,7.9,6.6,10.5c-2.3-2.4-4.1-5.5-4.8-8.9H692.3z"/>
		<path id="XMLID_236_" class="st6" d="M420.5,231.9h-45.6c1,4.3,3.4,7.9,6.6,10.5c-2.3-2.4-4.1-5.5-4.8-8.9h45.6
			c0.2-0.9,0.4-2.8,0.4-4.5c0-8.3-3.7-15.8-9.6-20.8c4.9,4.9,7.9,11.7,7.9,19.2C420.8,229,420.7,230.9,420.5,231.9z"/>
		<path id="XMLID_235_" class="st6" d="M395.3,209.7c4.6,0,8.8,1.6,12.2,4.3c-3.5-3.7-8.5-5.9-13.9-5.9c-9.4,0-17.3,6.7-18.9,15.9
			h2.1C379,215.7,386.5,209.7,395.3,209.7z"/>
		<path id="XMLID_234_" class="st6" d="M504.1,227.6c2.7,3,4.3,6.9,4.3,10.9c0,8.7-7.9,16.1-16.7,16.1h-35.4c3.5-1.8,6.3-4.6,8.2-8
			h0.2c1-2,1.5-4.2,1.5-6.5c0-4.8-2.3-9.5-6.1-12.5c2.7,3,4.3,6.9,4.3,10.9c0,8.7-7.9,16.1-16.7,16.1h-14.5h-5.5h-34.3
			c-6.7,0-12.9-2.4-17.6-6.5c4.9,5,11.8,8.1,19.4,8.1h34.3h5.5h14h0.5h43.9c8.8,0,16.7-7.4,16.7-16.1
			C510.2,235.3,507.9,230.7,504.1,227.6z"/>
		<path id="XMLID_233_" class="st6" d="M442.9,208c-6.7,0-10.7,3.1-10.7,7.3c0,2.9,1.1,4.6,2.9,5.7c-0.7-1-1.1-2.3-1.1-4.1
			c0-4.2,4-7.3,10.7-7.3c4.5,0,10.2,0.8,16.2,3.3l3.1-7.4c-0.7-0.3-1.4-0.5-2.1-0.8l-2.7,6.6C453.1,208.8,447.4,208,442.9,208z"/>
		<path id="XMLID_232_" class="st6" d="M486.9,208c-6.7,0-10.7,3.1-10.7,7.3c0,2.9,1.1,4.6,2.9,5.7c-0.7-1-1.1-2.3-1.1-4.1
			c0-4.2,4-7.3,10.7-7.3c4.5,0,10.2,0.8,16.2,3.3l3.1-7.4c-0.7-0.3-1.4-0.5-2.1-0.8l-2.7,6.6C497.1,208.8,491.3,208,486.9,208z"/>
		<path id="XMLID_231_" class="st6" d="M448.4,230.6c-6,0-6,0-6,0c-5.4-0.1-9.9-1.4-13-3.8c3.1,3.4,8.2,5.3,14.7,5.4c0,0,0,0,6,0
			c1.8,0,3.2,0.5,4.4,1.3C453.3,231.8,451.2,230.6,448.4,230.6z"/>
		<path id="XMLID_230_" class="st6" d="M492.4,230.6c-6,0-6,0-6,0c-5.4-0.1-9.9-1.4-13-3.8c3.1,3.4,8.2,5.3,14.7,5.4c0,0,0,0,6,0
			c1.8,0,3.2,0.5,4.4,1.3C497.2,231.8,495.2,230.6,492.4,230.6z"/>
	</g>
	<g id="XMLID_324_" class="st1">
		<rect id="XMLID_342_" x="333.9" y="202.5" class="st7" width="12.4" height="1.6"/>
		<path id="XMLID_341_" class="st7" d="M354.3,247.6c0,14.5-11.3,26.3-25.5,27.2v1.7c15,0,27.3-12.2,27.3-27.3v-53.1h-1.7V247.6z"/>
		<path id="XMLID_340_" class="st7" d="M353.5,176.4c0.8,1,1.2,2.3,1.2,3.6c0,3.4-2.7,6.1-6.1,6.1c-1.2,0-2.3-0.3-3.2-0.9
			c1.1,1.5,2.9,2.5,4.9,2.5c3.4,0,6.1-2.7,6.1-6.1C356.5,179.5,355.3,177.5,353.5,176.4z"/>
		<path id="XMLID_339_" class="st7" d="M583.7,211.3c3.5-5.3,9.6-8.6,16-8.6c4.6,0,8.9,1.6,12.2,4.3c-3.5-3.6-8.4-5.9-13.9-5.9
			c-6.3,0-12.5,3.3-16,8.6v29.8h1.7V211.3z"/>
		<path id="XMLID_338_" class="st7" d="M534.1,202.6c4.6,0,8.8,1.6,12.2,4.3c-3.5-3.7-8.5-5.9-13.9-5.9c-9.4,0-17.3,6.7-18.9,15.9
			h2.1C517.7,208.5,525.2,202.6,534.1,202.6z"/>
		<path id="XMLID_337_" class="st7" d="M583.7,197.5v-24.9H582v26.2C582.5,198.4,583.1,197.9,583.7,197.5z"/>
		<path id="XMLID_336_" class="st7" d="M559.2,224.7h-45.6c1,4.3,3.4,7.9,6.6,10.5c-2.3-2.4-4.1-5.5-4.8-8.9H561
			c0.2-0.9,0.4-2.8,0.4-4.5c0-8.3-3.7-15.8-9.6-20.8c4.9,4.9,7.9,11.7,7.9,19.2C559.6,221.9,559.5,223.8,559.2,224.7z"/>
		<path id="XMLID_335_" class="st7" d="M617.3,201.2c4.9,4.9,7.9,11.6,7.9,19.1c0,15-12.2,27.3-27.3,27.3h-51.2h-2.2h-12.3
			c-6.7,0-12.9-2.4-17.6-6.5c4.9,5,11.8,8.1,19.4,8.1h12.3h2.2h51.2c15,0,27.3-12.2,27.3-27.3C626.9,213.6,623.2,206.2,617.3,201.2z
			"/>
		<path id="XMLID_334_" class="st7" d="M656.5,247.5c-6.7,0-12.9-2.4-17.6-6.5c4.9,5,11.8,8.1,19.4,8.1h14.5v-8h-1.7v6.4H656.5z"/>
		<path id="XMLID_333_" class="st7" d="M658.2,202.6c4.6,0,8.8,1.6,12.2,4.3c-3.5-3.7-8.5-5.9-13.9-5.9c-9.4,0-17.3,6.7-18.9,15.9
			h2.1C641.9,208.5,649.4,202.6,658.2,202.6z"/>
		<path id="XMLID_332_" class="st7" d="M685.1,226.3c0.2-0.9,0.4-2.8,0.4-4.5c0-8.3-3.7-15.8-9.6-20.8c4.9,4.9,7.9,11.7,7.9,19.2
			c0,1.6-0.1,3.5-0.4,4.5h-45.6c1,4.3,3.4,7.9,6.6,10.5c-2.3-2.4-4.1-5.5-4.8-8.9H685.1z"/>
		<path id="XMLID_331_" class="st7" d="M413.3,224.7h-45.6c1,4.3,3.4,7.9,6.6,10.5c-2.3-2.4-4.1-5.5-4.8-8.9H415
			c0.2-0.9,0.4-2.8,0.4-4.5c0-8.3-3.7-15.8-9.6-20.8c4.9,4.9,7.9,11.7,7.9,19.2C413.7,221.9,413.5,223.8,413.3,224.7z"/>
		<path id="XMLID_330_" class="st7" d="M388.1,202.6c4.6,0,8.8,1.6,12.2,4.3c-3.5-3.7-8.5-5.9-13.9-5.9c-9.4,0-17.3,6.7-18.9,15.9
			h2.1C371.8,208.5,379.3,202.6,388.1,202.6z"/>
		<path id="XMLID_329_" class="st7" d="M497,220.5c2.7,3,4.3,6.9,4.3,10.9c0,8.7-7.9,16.1-16.7,16.1h-35.4c3.5-1.8,6.3-4.6,8.2-8
			h0.2c1-2,1.5-4.2,1.5-6.5c0-4.8-2.3-9.5-6.1-12.5c2.7,3,4.3,6.9,4.3,10.9c0,8.7-7.9,16.1-16.7,16.1h-14.5h-5.5h-34.3
			c-6.7,0-12.9-2.4-17.6-6.5c4.9,5,11.8,8.1,19.4,8.1h34.3h5.5h14h0.5h43.9c8.8,0,16.7-7.4,16.7-16.1
			C503,228.2,500.8,223.5,497,220.5z"/>
		<path id="XMLID_328_" class="st7" d="M435.8,200.9c-6.7,0-10.7,3.1-10.7,7.3c0,2.9,1.1,4.6,2.9,5.7c-0.7-1-1.1-2.3-1.1-4.1
			c0-4.2,4-7.3,10.7-7.3c4.5,0,10.2,0.8,16.2,3.3l3.1-7.4c-0.7-0.3-1.4-0.5-2.1-0.8l-2.7,6.6C446,201.7,440.2,200.9,435.8,200.9z"/>
		<path id="XMLID_327_" class="st7" d="M479.7,200.9c-6.7,0-10.7,3.1-10.7,7.3c0,2.9,1.1,4.6,2.9,5.7c-0.7-1-1.1-2.3-1.1-4.1
			c0-4.2,4-7.3,10.7-7.3c4.5,0,10.2,0.8,16.2,3.3l3.1-7.4c-0.7-0.3-1.4-0.5-2.1-0.8l-2.7,6.6C489.9,201.7,484.2,200.9,479.7,200.9z"
			/>
		<path id="XMLID_326_" class="st7" d="M441.3,223.4c-6,0-6,0-6,0c-5.4-0.1-9.9-1.4-13-3.8c3.1,3.4,8.2,5.3,14.7,5.4c0,0,0,0,6,0
			c1.8,0,3.2,0.5,4.4,1.3C446.1,224.6,444.1,223.4,441.3,223.4z"/>
		<path id="XMLID_325_" class="st7" d="M485.2,223.4c-6,0-6,0-6,0c-5.4-0.1-9.9-1.4-13-3.8c3.1,3.4,8.2,5.3,14.7,5.4c0,0,0,0,6,0
			c1.8,0,3.2,0.5,4.4,1.3C490,224.6,488,223.4,485.2,223.4z"/>
	</g>
	<g id="XMLID_1_" class="st1">
		<polygon id="XMLID_401_" class="st7" points="-111.3,205.5 -109.9,205.5 -109.9,207 -108.4,207 -108.4,208.4 -107,208.4 
			-107,209.8 -105.6,209.8 -105.6,211.3 -93.2,211.3 -93.2,209.7 -94.6,209.7 -94.6,208.2 -96.1,208.2 -96.1,206.8 -97.5,206.8 
			-97.5,205.4 -98.9,205.4 -98.9,203.9 -100.4,203.9 -100.4,202.5 -112.7,202.5 -112.7,204.1 -111.3,204.1 		"/>
		<path id="XMLID_404_" class="st7" d="M136.8,240.9h1.4v1.4h1.4v1.4h1.4v1.4h1.4v1.4h1.7v-28.2c3.5-5.3,9.6-8.6,16-8.6
			c4.6,0,8.9,1.6,12.2,4.3c-1.3-1.3-2.7-2.5-4.4-3.4c1,0.6,2,1.2,2.9,1.9c-1.3-1.3-2.7-2.5-4.4-3.4c1,0.6,2,1.2,2.9,1.9
			c-1.3-1.3-2.7-2.5-4.4-3.4c1,0.6,2,1.2,2.9,1.9c-1.3-1.3-2.7-2.5-4.4-3.4c1,0.6,2,1.2,2.9,1.9c-1.3-1.3-2.7-2.5-4.4-3.4
			c1,0.6,2,1.2,2.9,1.9c-3.5-3.6-8.4-5.9-13.9-5.9c-2.4,0-4.8,0.5-7.1,1.4v-22.7h-1.4v-1.4h-1.4v-1.4h-1.4v-1.4h-1.4V174h-1.4v-1.4
			h-1.7v26.2c0.5-0.4,0.9-0.7,1.4-1.1v2.5c0.5-0.4,0.9-0.7,1.4-1.1v2.5c0.5-0.4,0.9-0.7,1.4-1.1v2.5c0.5-0.4,0.9-0.7,1.4-1.1v2
			c-2.3,1.4-4.2,3.3-5.7,5.6v29.8h1.4V240.9z M166.8,210.2c0.1,0,0.1,0.1,0.2,0.1C167,210.2,166.9,210.2,166.8,210.2z M165.4,208.7
			c0.1,0,0.1,0.1,0.2,0.1C165.5,208.8,165.5,208.8,165.4,208.7z M163.9,207.3c0.1,0,0.1,0.1,0.2,0.1
			C164.1,207.4,164,207.3,163.9,207.3z M162.5,205.9c0.1,0,0.1,0.1,0.2,0.1C162.7,205.9,162.6,205.9,162.5,205.9z M161.1,204.4
			c0.1,0,0.1,0.1,0.2,0.1C161.2,204.5,161.2,204.5,161.1,204.4z"/>
		<path id="XMLID_409_" class="st7" d="M68.2,218.3H70c-0.1,0.5-0.2,0.9-0.3,1.4h1.8c-0.1,0.5-0.2,0.9-0.3,1.4h1.8
			c-0.1,0.5-0.2,0.9-0.3,1.4h1.8c-0.1,0.5-0.2,0.9-0.3,1.4H76c2.2-8.3,9.7-14.3,18.6-14.3c4.6,0,8.8,1.6,12.2,4.3
			c-1.3-1.3-2.7-2.5-4.3-3.4c1,0.6,2,1.2,2.9,1.9c-1.3-1.3-2.7-2.5-4.3-3.4c1,0.6,2,1.2,2.9,1.9c-1.3-1.3-2.7-2.5-4.3-3.4
			c1,0.6,2,1.2,2.9,1.9c-1.3-1.3-2.7-2.5-4.3-3.4c1,0.6,2,1.2,2.9,1.9c-1.3-1.3-2.7-2.5-4.3-3.4c1,0.6,2,1.2,2.9,1.9
			c-3.5-3.7-8.5-5.9-13.9-5.9c-9.4,0-17.3,6.7-18.9,15.9h1.8C68.4,217.3,68.3,217.8,68.2,218.3z"/>
		<path id="XMLID_410_" class="st7" d="M192.3,218.3h1.8c-0.1,0.5-0.2,0.9-0.3,1.4h1.8c-0.1,0.5-0.2,0.9-0.3,1.4h1.8
			c-0.1,0.5-0.2,0.9-0.3,1.4h1.8c-0.1,0.5-0.2,0.9-0.3,1.4h2.1c2.2-8.3,9.7-14.3,18.6-14.3c4.6,0,8.8,1.6,12.2,4.3
			c-1.3-1.3-2.7-2.5-4.3-3.4c1,0.6,2,1.2,2.9,1.9c-1.3-1.3-2.7-2.5-4.3-3.4c1,0.6,2,1.2,2.9,1.9c-1.3-1.3-2.7-2.5-4.3-3.4
			c1,0.6,2,1.2,2.9,1.9c-1.3-1.3-2.7-2.5-4.3-3.4c1,0.6,2,1.2,2.9,1.9c-1.3-1.3-2.7-2.5-4.3-3.4c1,0.6,2,1.2,2.9,1.9
			c-3.5-3.7-8.5-5.9-13.9-5.9c-9.4,0-17.3,6.7-18.9,15.9h1.8C192.5,217.3,192.4,217.8,192.3,218.3z"/>
		<path id="XMLID_411_" class="st7" d="M-77.7,218.3h1.8c-0.1,0.5-0.2,0.9-0.3,1.4h1.8c-0.1,0.5-0.2,0.9-0.3,1.4h1.8
			c-0.1,0.5-0.2,0.9-0.3,1.4h1.8c-0.1,0.5-0.2,0.9-0.3,1.4h2.1c2.2-8.3,9.7-14.3,18.6-14.3c4.6,0,8.8,1.6,12.2,4.3
			c-1.3-1.3-2.7-2.5-4.3-3.4c1,0.6,2,1.2,2.9,1.9c-1.3-1.3-2.7-2.5-4.3-3.4c1,0.6,2,1.2,2.9,1.9c-1.3-1.3-2.7-2.5-4.3-3.4
			c1,0.6,2,1.2,2.9,1.9c-1.3-1.3-2.7-2.5-4.3-3.4c1,0.6,2,1.2,2.9,1.9c-1.3-1.3-2.7-2.5-4.3-3.4c1,0.6,2,1.2,2.9,1.9
			c-3.5-3.7-8.5-5.9-13.9-5.9c-9.4,0-17.3,6.7-18.9,15.9h1.8C-77.5,217.3-77.6,217.8-77.7,218.3z"/>
		<path id="XMLID_412_" class="st7" d="M-22.9,221.1c1.1,1.2,2.4,2.2,3.9,3c-0.9-0.5-1.8-1-2.5-1.6c1.1,1.2,2.4,2.2,3.9,3
			c-0.9-0.5-1.8-1-2.5-1.6c1.1,1.2,2.4,2.2,3.9,3c-0.9-0.5-1.8-1-2.5-1.6c1.1,1.2,2.4,2.2,3.9,3c-0.9-0.5-1.8-1-2.5-1.6
			c3.1,3.4,8.2,5.3,14.7,5.4c0,0,0,0,6,0c1.8,0,3.2,0.5,4.4,1.3c-0.5-0.6-1.1-1.2-1.8-1.6c0.1,0.1,0.2,0.1,0.3,0.2
			c-0.5-0.6-1.1-1.2-1.8-1.6c0.1,0.1,0.2,0.1,0.3,0.2C4.6,230,4,229.4,3.3,229c0.1,0.1,0.2,0.1,0.3,0.2c-0.5-0.6-1.1-1.2-1.8-1.6
			c0.1,0.1,0.2,0.1,0.3,0.2c-0.5-0.6-1.1-1.2-1.8-1.6c0.1,0.1,0.2,0.1,0.3,0.2c-1.3-1.7-3.4-2.9-6.2-2.9c-6,0-6,0-6,0
			c-5.4-0.1-9.9-1.4-13-3.8c1.1,1.2,2.4,2.2,3.9,3C-21.3,222.2-22.2,221.7-22.9,221.1z"/>
		<path id="XMLID_413_" class="st7" d="M21,221.1c1.1,1.2,2.4,2.2,3.9,3c-0.9-0.5-1.8-1-2.5-1.6c1.1,1.2,2.4,2.2,3.9,3
			c-0.9-0.5-1.8-1-2.5-1.6c1.1,1.2,2.4,2.2,3.9,3c-0.9-0.5-1.8-1-2.5-1.6c1.1,1.2,2.4,2.2,3.9,3c-0.9-0.5-1.8-1-2.5-1.6
			c3.1,3.4,8.2,5.3,14.7,5.4c0,0,0,0,6,0c1.8,0,3.2,0.5,4.4,1.3c-0.5-0.6-1.1-1.2-1.8-1.6c0.1,0.1,0.2,0.1,0.3,0.2
			c-0.5-0.6-1.1-1.2-1.8-1.6c0.1,0.1,0.2,0.1,0.3,0.2c-0.5-0.6-1.1-1.2-1.8-1.6c0.1,0.1,0.2,0.1,0.3,0.2c-0.5-0.6-1.1-1.2-1.8-1.6
			c0.1,0.1,0.2,0.1,0.3,0.2c-0.5-0.6-1.1-1.2-1.8-1.6c0.1,0.1,0.2,0.1,0.3,0.2c-1.3-1.7-3.4-2.9-6.2-2.9c-6,0-6,0-6,0
			c-5.4-0.1-9.9-1.4-13-3.8c1.1,1.2,2.4,2.2,3.9,3C22.6,222.2,21.8,221.7,21,221.1z"/>
		<path id="XMLID_414_" class="st7" d="M-84.9,201.8h-1.4v-1.4h-1.4V199h-1.4v-1.4h-1.4v-1.4h-1.7v51.5c0,14.5-11.3,26.3-25.5,27.2
			v1.7c0.5,0,1,0,1.4,0v1.5c0.5,0,1,0,1.4,0v1.5c0.5,0,1,0,1.4,0v1.5c0.5,0,1,0,1.4,0v1.5c0.5,0,1,0,1.4,0v1.5
			c15,0,27.3-12.2,27.3-27.3v-53.1h-1.4V201.8z"/>
		<path id="XMLID_415_" class="st7" d="M231.7,246.8h-1.4v-1.4h-1.4V244h-1.4v-1.4H226v-1.4h-1.7v6.4h-14.5
			c-6.7,0-12.9-2.4-17.6-6.5c1.7,1.8,3.7,3.3,5.9,4.5c-1.6-0.9-3.1-1.9-4.4-3.1c1.7,1.8,3.7,3.3,5.9,4.5c-1.6-0.9-3.1-1.9-4.4-3.1
			c1.7,1.8,3.7,3.3,5.9,4.5c-1.6-0.9-3.1-1.9-4.4-3.1c1.7,1.8,3.7,3.3,5.9,4.5c-1.6-0.9-3.1-1.9-4.4-3.1c1.7,1.8,3.7,3.3,5.9,4.5
			c-1.6-0.9-3.1-1.9-4.4-3.1c4.9,5,11.8,8.1,19.4,8.1h14.5v-8h-1.4V246.8z"/>
		<path id="XMLID_416_" class="st7" d="M-85.6,183.8c-0.4-0.6-0.9-1-1.4-1.4c-0.4-0.6-0.9-1-1.4-1.4c-0.4-0.6-0.9-1-1.4-1.4
			c-0.4-0.6-0.9-1-1.4-1.4c-0.5-0.7-1.1-1.3-1.8-1.7c0.8,1,1.2,2.3,1.2,3.6c0,3.4-2.7,6.1-6.1,6.1c-1.2,0-2.3-0.3-3.2-0.9
			c0.5,0.6,1,1.2,1.7,1.6c-0.1,0-0.2-0.1-0.3-0.1c0.5,0.6,1,1.2,1.7,1.6c-0.1,0-0.2-0.1-0.3-0.1c0.5,0.6,1,1.2,1.7,1.6
			c-0.1,0-0.2-0.1-0.3-0.1c0.5,0.6,1,1.2,1.7,1.6c-0.1,0-0.2-0.1-0.3-0.1c0.5,0.6,1,1.2,1.7,1.6c-0.1,0-0.2-0.1-0.3-0.1
			c1.1,1.5,2.9,2.5,4.9,2.5c3.4,0,6.1-2.7,6.1-6.1C-83,186.8-84,185-85.6,183.8z"/>
		<path id="XMLID_417_" class="st7" d="M178.7,209.2c-0.5-0.5-0.9-1-1.4-1.4c-0.5-0.5-0.9-1-1.4-1.4c-0.5-0.5-0.9-1-1.4-1.4
			c-0.5-0.5-0.9-1-1.4-1.4c-0.7-0.8-1.5-1.5-2.3-2.2c4.9,4.9,7.9,11.6,7.9,19.1c0,15-12.2,27.3-27.3,27.3h-51.2h-2.2H85.7
			c-6.7,0-12.9-2.4-17.6-6.5c1.7,1.8,3.7,3.3,5.9,4.5c-1.6-0.9-3.1-1.9-4.4-3.1c1.7,1.8,3.7,3.3,5.9,4.5c-1.6-0.9-3.1-1.9-4.4-3.1
			c1.7,1.8,3.7,3.3,5.9,4.5c-1.6-0.9-3.1-1.9-4.4-3.1c1.7,1.8,3.7,3.3,5.9,4.5c-1.6-0.9-3.1-1.9-4.4-3.1c1.7,1.8,3.7,3.3,5.9,4.5
			c-1.6-0.9-3.1-1.9-4.4-3.1c4.9,5,11.8,8.1,19.4,8.1h12.3h2.2h51.2c15,0,27.3-12.2,27.3-27.3C187.5,221.2,184.1,214.1,178.7,209.2z
			"/>
		<path id="XMLID_418_" class="st7" d="M237.2,209c-0.5-0.5-0.9-1-1.4-1.4c-0.5-0.5-0.9-1-1.4-1.4c-0.5-0.5-0.9-1-1.4-1.4
			c-0.5-0.5-0.9-1-1.4-1.4c-0.7-0.8-1.5-1.5-2.3-2.2c4.9,4.9,7.9,11.7,7.9,19.2c0,1.6-0.1,3.5-0.4,4.5h-45.6c0.9,3.9,3,7.3,5.7,9.8
			c0.5,0.5,0.9,1,1.4,1.4c0.5,0.5,0.9,1,1.4,1.4c0.5,0.5,0.9,1,1.4,1.4c0.5,0.5,0.9,1,1.4,1.4c0.7,0.8,1.5,1.5,2.3,2.2
			c-2.3-2.4-4.1-5.5-4.8-8.9h45.6c0.2-0.9,0.4-2.8,0.4-4.5C246,221.1,242.6,214,237.2,209z"/>
		<path id="XMLID_419_" class="st7" d="M58.1,228.1c-0.4-0.5-0.9-1-1.4-1.4c-0.4-0.5-0.9-1-1.4-1.4c-0.4-0.5-0.9-1-1.4-1.4
			c-0.4-0.5-0.9-1-1.4-1.4c-0.6-0.7-1.3-1.4-2-1.9c2.7,3,4.3,6.9,4.3,10.9c0,8.7-7.9,16.1-16.7,16.1H17.4c0.2-0.3,0.3-0.5,0.5-0.8
			h0.2c1-2,1.5-4.2,1.5-6.5c0-4.6-2.1-9-5.5-12c-0.4-0.5-0.9-1-1.4-1.4c-0.4-0.5-0.9-1-1.4-1.4c-0.4-0.5-0.9-1-1.4-1.4
			c-0.4-0.5-0.9-1-1.4-1.4c-0.6-0.7-1.3-1.4-2-1.9c2.7,3,4.3,6.9,4.3,10.9c0,8.7-7.9,16.1-16.7,16.1h-14.5h-5.5h-34.3
			c-6.7,0-12.9-2.4-17.6-6.5c1.7,1.8,3.7,3.3,5.9,4.5c-1.6-0.9-3.1-1.9-4.4-3.1c1.7,1.8,3.7,3.3,5.9,4.5c-1.6-0.9-3.1-1.9-4.4-3.1
			c1.7,1.8,3.7,3.3,5.9,4.5c-1.6-0.9-3.1-1.9-4.4-3.1c1.7,1.8,3.7,3.3,5.9,4.5c-1.6-0.9-3.1-1.9-4.4-3.1c1.7,1.8,3.7,3.3,5.9,4.5
			c-1.6-0.9-3.1-1.9-4.4-3.1c4.9,5,11.8,8.1,19.4,8.1H-17h5.5h14h0.5h43.9c8.8,0,16.7-7.4,16.7-16.1
			C63.6,235.6,61.5,231.2,58.1,228.1z"/>
		<path id="XMLID_420_" class="st7" d="M72.7,234.5c0.5,0.5,0.9,1,1.4,1.4c0.5,0.5,0.9,1,1.4,1.4c0.5,0.5,0.9,1,1.4,1.4
			c0.5,0.5,0.9,1,1.4,1.4c0.7,0.8,1.5,1.5,2.3,2.2c-2.3-2.4-4.1-5.5-4.8-8.9h45.6c0.2-0.9,0.4-2.8,0.4-4.5c0-7.9-3.4-15-8.7-20
			c-0.5-0.5-0.9-1-1.4-1.4c-0.5-0.5-0.9-1-1.4-1.4c-0.5-0.5-0.9-1-1.4-1.4c-0.5-0.5-0.9-1-1.4-1.4c-0.7-0.8-1.5-1.5-2.3-2.2
			c4.9,4.9,7.9,11.7,7.9,19.2c0,1.6-0.1,3.5-0.4,4.5H67C67.9,228.6,70,232,72.7,234.5z"/>
		<path id="XMLID_421_" class="st7" d="M-73.2,234.5c0.5,0.5,0.9,1,1.4,1.4c0.5,0.5,0.9,1,1.4,1.4c0.5,0.5,0.9,1,1.4,1.4
			c0.5,0.5,0.9,1,1.4,1.4c0.7,0.8,1.5,1.5,2.3,2.2c-2.3-2.4-4.1-5.5-4.8-8.9h45.6c0.2-0.9,0.4-2.8,0.4-4.5c0-7.9-3.4-15-8.7-20
			c-0.5-0.5-0.9-1-1.4-1.4c-0.5-0.5-0.9-1-1.4-1.4c-0.5-0.5-0.9-1-1.4-1.4c-0.5-0.5-0.9-1-1.4-1.4c-0.7-0.8-1.5-1.5-2.3-2.2
			c4.9,4.9,7.9,11.7,7.9,19.2c0,1.6-0.1,3.5-0.4,4.5h-45.6C-78,228.6-76,232-73.2,234.5z"/>
		<path id="XMLID_422_" class="st7" d="M-19.1,213.6c0.4,0.6,0.9,1,1.4,1.4c0.4,0.6,0.9,1,1.4,1.4c0.4,0.6,0.9,1,1.4,1.4
			c0.4,0.6,0.9,1,1.4,1.4c0.5,0.7,1.1,1.2,1.8,1.7c-0.7-1-1.1-2.3-1.1-4.1c0-4.2,4-7.3,10.7-7.3c4.5,0,10.2,0.8,16.2,3.3l3.1-7.4
			c-0.6-0.2-1.2-0.5-1.8-0.7l0.3-0.8c-0.6-0.2-1.2-0.5-1.8-0.7l0.3-0.8c-0.6-0.2-1.2-0.5-1.8-0.7l0.3-0.8c-0.6-0.2-1.2-0.5-1.8-0.7
			l0.3-0.8c-0.6-0.2-1.2-0.5-1.8-0.7l0.3-0.8c-0.7-0.3-1.4-0.5-2.1-0.8l-2.7,6.6c-6-2.5-11.7-3.3-16.2-3.3c-6.7,0-10.7,3.1-10.7,7.3
			C-21.6,210.8-20.6,212.5-19.1,213.6z"/>
		<path id="XMLID_423_" class="st7" d="M24.9,213.6c0.4,0.6,0.9,1,1.4,1.4c0.4,0.6,0.9,1,1.4,1.4c0.4,0.6,0.9,1,1.4,1.4
			c0.4,0.6,0.9,1,1.4,1.4c0.5,0.7,1.1,1.2,1.8,1.7c-0.7-1-1.1-2.3-1.1-4.1c0-4.2,4-7.3,10.7-7.3c4.5,0,10.2,0.8,16.2,3.3l3.1-7.4
			c-0.6-0.2-1.2-0.5-1.8-0.7l0.3-0.8c-0.6-0.2-1.2-0.5-1.8-0.7l0.3-0.8c-0.6-0.2-1.2-0.5-1.8-0.7l0.3-0.8c-0.6-0.2-1.2-0.5-1.8-0.7
			l0.3-0.8c-0.6-0.2-1.2-0.5-1.8-0.7l0.3-0.8c-0.7-0.3-1.4-0.5-2.1-0.8l-2.7,6.6c-6-2.5-11.7-3.3-16.2-3.3c-6.7,0-10.7,3.1-10.7,7.3
			C22.4,210.8,23.3,212.5,24.9,213.6z"/>
	</g>
</g>
<g id="Layer_2">
	<g id="XMLID_173_">
		<path id="XMLID_174_" class="st7" d="M87.9,118.9c-0.3-0.1-0.6-0.3-0.8-0.5c1.2,1.7,2.7,3.1,4.5,4.1c-0.3-0.1-0.6-0.3-0.8-0.5
			c1.2,1.7,2.7,3.1,4.5,4.1c-0.3-0.1-0.6-0.3-0.8-0.5c1.2,1.7,2.7,3.1,4.5,4.1c-0.3-0.1-0.6-0.3-0.8-0.5c1.2,1.7,2.7,3.1,4.5,4.1
			c-0.3-0.1-0.6-0.3-0.8-0.5c1.2,1.7,2.7,3.1,4.5,4.1c-0.3-0.1-0.6-0.3-0.8-0.5c1.2,1.7,2.7,3.1,4.5,4.1c-0.3-0.1-0.6-0.3-0.8-0.5
			c1.2,1.7,2.7,3.1,4.5,4.1c-0.3-0.1-0.6-0.3-0.8-0.5c2.8,3.9,7.4,6.4,12.7,6.4c8.7,0,15.7-6.9,15.7-15.7c0-5.2-2.6-9.9-6.6-12.7
			c-1-1.4-2.3-2.7-3.7-3.7c-1-1.4-2.3-2.7-3.7-3.7c-1-1.4-2.3-2.7-3.7-3.7c-1-1.4-2.3-2.7-3.7-3.7c-1-1.4-2.3-2.7-3.7-3.7
			c-1-1.4-2.3-2.7-3.7-3.7c-1-1.4-2.3-2.7-3.7-3.7c-1.2-1.7-2.8-3.2-4.6-4.3c1.9,2.6,3.1,5.8,3.1,9.2c0,8.7-6.9,15.7-15.7,15.7
			c-3,0-5.8-0.8-8.2-2.3C84.6,116.4,86.2,117.8,87.9,118.9z"/>
		<path id="XMLID_175_" class="st7" d="M518,199.5h4.5c-0.3,1.2-0.6,2.4-0.8,3.7h4.5c-0.3,1.2-0.6,2.4-0.8,3.7h4.5
			c-0.3,1.2-0.6,2.4-0.8,3.7h4.5c-0.3,1.2-0.6,2.4-0.8,3.7h4.5c-0.2,0.6-0.3,1.2-0.4,1.8h-21.8c2.3,10.1,7.6,18.7,14.9,25.3
			c1.2,1.3,2.4,2.5,3.7,3.7c1.2,1.3,2.4,2.5,3.7,3.7c1.2,1.3,2.4,2.5,3.7,3.7c1.2,1.3,2.4,2.5,3.7,3.7c1.2,1.3,2.4,2.5,3.7,3.7
			c1.2,1.3,2.4,2.5,3.7,3.7c1.2,1.3,2.4,2.5,3.7,3.7c1.8,2,3.7,3.8,5.7,5.4c-6-6.2-10.4-14-12.4-22.9h116.9
			c0.6-2.4,0.9-7.2,0.9-11.5c0-20.2-8.6-38.5-22.4-51.2c-1.2-1.3-2.4-2.5-3.7-3.7c-1.2-1.3-2.4-2.5-3.7-3.7
			c-1.2-1.3-2.4-2.5-3.7-3.7c-1.2-1.3-2.4-2.5-3.7-3.7c-1.2-1.3-2.4-2.5-3.7-3.7c-1.2-1.3-2.4-2.5-3.7-3.7c-1.2-1.3-2.4-2.5-3.7-3.7
			c-1.9-2-3.9-4-6-5.7c12.5,12.6,20.3,30,20.3,49.2c0,4.2-0.3,9-0.9,11.5h-79.2c8.1-16.4,24.9-27.3,44.1-27.3
			c11.8,0,22.7,4.1,31.2,11.1c-3.3-3.4-7-6.3-11.2-8.7c2.7,1.4,5.2,3.1,7.5,5c-3.3-3.4-7-6.3-11.2-8.7c2.7,1.4,5.2,3.1,7.5,5
			c-3.3-3.4-7-6.3-11.2-8.7c2.7,1.4,5.2,3.1,7.5,5c-3.3-3.4-7-6.3-11.2-8.7c2.7,1.4,5.2,3.1,7.5,5c-3.3-3.4-7-6.3-11.2-8.7
			c2.7,1.4,5.2,3.1,7.5,5c-3.3-3.4-7-6.3-11.2-8.7c2.7,1.4,5.2,3.1,7.5,5c-3.3-3.4-7-6.3-11.2-8.7c2.7,1.4,5.2,3.1,7.5,5
			c-3.3-3.4-7-6.3-11.2-8.7c2.7,1.4,5.2,3.1,7.5,5c-9-9.4-21.7-15.2-35.7-15.2c-24.1,0-44.3,17.2-48.5,40.7h4.5
			C518.5,197,518.2,198.2,518,199.5z"/>
		<path id="XMLID_176_" class="st7" d="M136.3,168.4h-3.7v-3.7H129V161h-3.7v-3.7h-3.7v-3.7h-3.7V150h-3.7v-3.7h-3.7v-3.7h-4.5v38.4
			H104v-3.7h-3.7v-3.7h-3.7v-3.7H93v-3.7h-3.7v-3.7h-3.7V159H53.9v4.1h3.7v3.7h3.7v3.7H65v3.7h3.7v3.7h3.7v3.7H76v3.7h3.7v3.7h3.7
			v3.7h22.8v82.2c0,37.1-29,67.4-65.5,69.8v4.3c1.2,0,2.5,0,3.7-0.1v3.8c1.2,0,2.5,0,3.7-0.1v3.8c1.2,0,2.5,0,3.7-0.1v3.8
			c1.2,0,2.5,0,3.7-0.1v3.8c1.2,0,2.5,0,3.7-0.1v3.8c1.2,0,2.5,0,3.7-0.1v3.8c1.2,0,2.5,0,3.7-0.1v3.8c1.2,0,2.5,0,3.7-0.1v3.8
			c38.6,0,69.9-31.3,69.9-69.9V172.1h-3.7V168.4z"/>
		<path id="XMLID_177_" class="st7" d="M948.5,283.8h-3.7v-3.7h-3.7v-3.7h-3.7v-3.7h-3.7v-3.7h-3.7v-3.7h-3.7v-3.7h-3.7v-3.7h-4.5
			v16.4h-37.1c-17.2,0-33-6.3-45.2-16.6c4.5,4.5,9.5,8.4,15,11.5c-4-2.2-7.9-4.9-11.4-7.8c4.5,4.5,9.5,8.4,15,11.5
			c-4-2.2-7.9-4.9-11.4-7.8c4.5,4.5,9.5,8.4,15,11.5c-4-2.2-7.9-4.9-11.4-7.8c4.5,4.5,9.5,8.4,15,11.5c-4-2.2-7.9-4.9-11.4-7.8
			c4.5,4.5,9.5,8.4,15,11.5c-4-2.2-7.9-4.9-11.4-7.8c4.5,4.5,9.5,8.4,15,11.5c-4-2.2-7.9-4.9-11.4-7.8c4.5,4.5,9.5,8.4,15,11.5
			c-4-2.2-7.9-4.9-11.4-7.8c4.5,4.5,9.5,8.4,15,11.5c-4-2.2-7.9-4.9-11.4-7.9c12.7,12.8,30.2,20.7,49.6,20.7h37.1v-20.5h-3.7V283.8z
			"/>
		<path id="XMLID_180_" class="st7" d="M812.6,187.2c-1.2-1.3-2.4-2.5-3.7-3.7c-1.2-1.3-2.4-2.5-3.7-3.7c-1.2-1.3-2.4-2.5-3.7-3.7
			c-1.2-1.3-2.4-2.5-3.7-3.7c-1.2-1.3-2.4-2.5-3.7-3.7c-1.2-1.3-2.4-2.5-3.7-3.7c-1.2-1.3-2.4-2.5-3.7-3.7c-1.9-2-3.9-4-6-5.8
			c12.5,12.6,20.2,29.9,20.2,48.9c0,38.6-31.3,69.9-69.9,69.9H724v-63.5c9-13.6,24.7-22,41-22c11.9,0,22.7,4.1,31.2,11
			c-3.3-3.4-7.1-6.4-11.4-8.8c2.7,1.5,5.3,3.2,7.7,5.1c-3.3-3.4-7.1-6.4-11.4-8.8c2.7,1.5,5.3,3.2,7.7,5.1
			c-3.3-3.4-7.1-6.4-11.4-8.8c2.7,1.5,5.3,3.2,7.7,5.1c-3.3-3.4-7.1-6.4-11.4-8.8c2.7,1.5,5.3,3.2,7.7,5.1
			c-3.3-3.4-7.1-6.4-11.4-8.8c2.7,1.5,5.3,3.2,7.7,5.1c-3.3-3.4-7.1-6.4-11.4-8.8c2.7,1.5,5.3,3.2,7.7,5.1
			c-3.3-3.4-7.1-6.4-11.4-8.8c2.7,1.5,5.3,3.2,7.7,5.1c-3.3-3.4-7.1-6.4-11.4-8.8c2.7,1.5,5.3,3.2,7.7,5.1
			c-9-9.3-21.6-15.1-35.7-15.1c-2.4,0-4.8,0.2-7.1,0.6v-44.2h-3.7v-3.7h-3.7v-3.7H713v-3.7h-3.7v-3.7h-3.7v-3.7H702v-3.7h-3.7V86
			h-3.7v-3.7h-4.5v67.3c1.2-1,2.4-1.9,3.7-2.8v6.5c1.2-1,2.4-1.9,3.7-2.8v6.5c1.2-1,2.4-1.9,3.7-2.8v6.5c1.2-1,2.4-1.9,3.7-2.8v5.3
			c-5.8,3.7-10.9,8.5-14.7,14.3v76.5h3.7v3.7h3.7v3.7h3.7v3.7h3.7v3.7h3.7v3.7h3.7v2.1H599.9h-5.6h-31.4c-17.2,0-33-6.3-45.2-16.6
			c4.5,4.5,9.5,8.4,15,11.5c-4-2.2-7.9-4.9-11.4-7.9c4.5,4.5,9.5,8.4,15,11.5c-4-2.2-7.9-4.9-11.4-7.9c4.5,4.5,9.5,8.4,15,11.5
			c-4-2.2-7.9-4.9-11.4-7.9c4.5,4.5,9.5,8.4,15,11.5c-4-2.2-7.9-4.9-11.4-7.9c4.5,4.5,9.5,8.4,15,11.5c-4-2.2-7.9-4.9-11.4-7.9
			c4.5,4.5,9.5,8.4,15,11.5c-4-2.2-7.9-4.9-11.4-7.9c4.5,4.5,9.5,8.4,15,11.5c-4-2.2-7.9-4.9-11.4-7.9c4.5,4.5,9.5,8.4,15,11.5
			c-4-2.2-7.9-4.9-11.4-7.9c12.7,12.8,30.2,20.7,49.6,20.7h31.4h5.6H765c38.6,0,69.9-31.3,69.9-69.9
			C834.9,218,826.3,199.9,812.6,187.2z M783.9,190.7C783.9,190.7,784,190.7,783.9,190.7C784,190.7,783.9,190.7,783.9,190.7z
			 M780.2,187C780.3,187,780.3,187,780.2,187C780.3,187,780.3,187,780.2,187z M776.5,183.3C776.6,183.3,776.6,183.3,776.5,183.3
			C776.6,183.3,776.6,183.3,776.5,183.3z M772.9,179.6C772.9,179.6,772.9,179.7,772.9,179.6C772.9,179.7,772.9,179.6,772.9,179.6z
			 M769.2,176C769.2,176,769.3,176,769.2,176C769.3,176,769.2,176,769.2,176z M765.5,172.3C765.5,172.3,765.6,172.3,765.5,172.3
			C765.6,172.3,765.5,172.3,765.5,172.3z M761.8,168.6C761.9,168.6,761.9,168.6,761.8,168.6C761.9,168.6,761.9,168.6,761.8,168.6z
			 M758.2,164.9C758.2,164.9,758.2,165,758.2,164.9C758.2,165,758.2,164.9,758.2,164.9z"/>
		<path id="XMLID_188_" class="st7" d="M962.6,186.8c-1.2-1.3-2.4-2.5-3.7-3.7c-1.2-1.3-2.4-2.5-3.7-3.7c-1.2-1.3-2.4-2.5-3.7-3.7
			c-1.2-1.3-2.4-2.5-3.7-3.7c-1.2-1.3-2.4-2.5-3.7-3.7c-1.2-1.3-2.4-2.5-3.7-3.7c-1.2-1.3-2.4-2.5-3.7-3.7c-1.9-2-3.9-4-6-5.7
			c12.5,12.6,20.3,30,20.3,49.2c0,4.2-0.3,9-0.9,11.5H871c8.1-16.4,24.9-27.3,44.1-27.3c11.8,0,22.7,4.1,31.2,11.1
			c-3.3-3.4-7-6.3-11.2-8.7c2.7,1.4,5.2,3.1,7.5,5c-3.3-3.4-7-6.3-11.2-8.7c2.7,1.4,5.2,3.1,7.5,5c-3.3-3.4-7-6.3-11.2-8.7
			c2.7,1.4,5.2,3.1,7.5,5c-3.3-3.4-7-6.3-11.2-8.7c2.7,1.4,5.2,3.1,7.5,5c-3.3-3.4-7-6.3-11.2-8.7c2.7,1.4,5.2,3.1,7.5,5
			c-3.3-3.4-7-6.3-11.2-8.7c2.7,1.4,5.2,3.1,7.5,5c-3.3-3.4-7-6.3-11.2-8.7c2.7,1.4,5.2,3.1,7.5,5c-3.3-3.4-7-6.3-11.2-8.7
			c2.7,1.4,5.2,3.1,7.5,5c-9-9.4-21.7-15.2-35.7-15.2c-24.1,0-44.3,17.2-48.5,40.7h4.5c-0.3,1.2-0.6,2.4-0.8,3.7h4.5
			c-0.3,1.2-0.6,2.4-0.8,3.7h4.5c-0.3,1.2-0.6,2.4-0.8,3.7h4.5c-0.3,1.2-0.6,2.4-0.8,3.7h4.5c-0.3,1.2-0.6,2.4-0.8,3.7h4.5
			c-0.2,0.6-0.3,1.2-0.4,1.8h-21.8c2.3,10.1,7.6,18.7,14.9,25.3c1.2,1.3,2.4,2.5,3.7,3.7c1.2,1.3,2.4,2.5,3.7,3.7
			c1.2,1.3,2.4,2.5,3.7,3.7c1.2,1.3,2.4,2.5,3.7,3.7c1.2,1.3,2.4,2.5,3.7,3.7c1.2,1.3,2.4,2.5,3.7,3.7c1.2,1.3,2.4,2.5,3.7,3.7
			c1.8,2,3.7,3.8,5.7,5.4c-6-6.2-10.4-14-12.4-22.9h116.9c0.6-2.4,0.9-7.2,0.9-11.5C985,217.8,976.3,199.6,962.6,186.8z"/>
		<path id="XMLID_191_" class="st7" d="M503.1,235.8c-1.1-1.3-2.4-2.5-3.7-3.7c-1.1-1.3-2.4-2.5-3.7-3.7c-1.1-1.3-2.4-2.5-3.7-3.7
			c-1.1-1.3-2.4-2.5-3.7-3.7c-1.1-1.3-2.4-2.5-3.7-3.7c-1.1-1.3-2.4-2.5-3.7-3.7c-1.1-1.3-2.4-2.5-3.7-3.7c-1.6-1.8-3.3-3.4-5.2-4.9
			c7,7.6,11.1,17.6,11.1,28c0,3.7-0.6,7.2-1.6,10.7c-1-1-2.1-1.8-3.3-2.6c0.5,0.3,1,0.6,1.5,0.9c-1.4-1.8-3.1-3.3-5.2-4.6
			c0.5,0.3,1,0.6,1.5,0.9c-1.4-1.8-3.1-3.3-5.2-4.6c0.5,0.3,1,0.6,1.5,0.9c-1.4-1.8-3.1-3.3-5.2-4.6c0.5,0.3,1,0.6,1.5,0.9
			c-1.4-1.8-3.1-3.3-5.2-4.6c0.5,0.3,1,0.6,1.5,0.9c-1.4-1.8-3.1-3.3-5.2-4.6c0.5,0.3,1,0.6,1.5,0.9c-1.4-1.8-3.1-3.3-5.2-4.6
			c0.5,0.3,1,0.6,1.5,0.9c-3.4-4.2-8.6-7.4-15.8-7.4c-2.8,0-5.1,0-7,0c-0.4-1.7-0.7-3.5-0.7-5.6c0-10.8,10.2-18.7,27.4-18.7
			c11.5,0,26.2,2.1,41.6,8.4l7.8-19c-1.5-0.6-3-1.2-4.5-1.7l0.8-2c-1.5-0.6-3-1.2-4.5-1.7l0.8-2c-1.5-0.6-3-1.2-4.5-1.7l0.8-2
			c-1.5-0.6-3-1.2-4.5-1.7l0.8-2c-1.5-0.6-3-1.2-4.5-1.7l0.8-2c-1.5-0.6-3-1.2-4.5-1.7l0.8-2c-1.5-0.6-3-1.2-4.5-1.7l0.8-2
			c-1.5-0.6-3-1.2-4.5-1.7l0.8-2c-1.8-0.7-3.6-1.4-5.3-2l-7,16.9c-15.4-6.3-30.1-8.4-41.6-8.4c-17.2,0-27.4,7.8-27.4,18.7
			c0,6.9,2.5,11.3,6.5,14c1,1.5,2.2,2.7,3.7,3.7c1,1.5,2.2,2.7,3.7,3.7c1,1.5,2.2,2.7,3.7,3.7c1,1.5,2.2,2.7,3.7,3.7
			c1,1.5,2.2,2.7,3.7,3.7c1,1.5,2.2,2.7,3.7,3.7c0.8,1.2,1.8,2.2,2.9,3.1c-5.2,0-5.2,0-5.2,0c-14-0.1-25.3-3.5-33.3-9.7
			c2.4,2.7,5.4,5,8.7,6.9c-1.8-1-3.5-2.1-5-3.3c2.4,2.7,5.3,5,8.7,6.9c-1.8-1-3.5-2.1-5-3.3c2.4,2.7,5.3,5,8.7,6.9
			c-1.8-1-3.5-2.1-5-3.3c2.4,2.7,5.4,5,8.7,6.9c-1.8-1-3.5-2.1-5-3.3c2.4,2.7,5.4,5,8.7,6.9c-1.8-1-3.5-2.1-5-3.3
			c2.4,2.7,5.3,5,8.7,6.9c-1.8-1-3.5-2.1-5-3.3c2.4,2.7,5.3,5,8.7,6.9c-1.8-1-3.5-2.1-5-3.3c2.4,2.7,5.4,5,8.7,6.9
			c-1.8-1-3.5-2.1-5-3.3c8,8.8,21,13.6,37.8,13.8c0,0,0,0,15.4,0c1.7,0,3.3,0.2,4.8,0.5c-6.1,15.9-22.4,27.7-40.2,27.7h-36.9
			c0.5-2.5,0.9-5.1,0.9-7.8c0-11.7-5.3-23.1-14.1-30.9c-1.1-1.3-2.4-2.5-3.7-3.7c-1.1-1.3-2.4-2.5-3.7-3.7c-1.1-1.3-2.4-2.5-3.7-3.7
			c-1.1-1.3-2.4-2.5-3.7-3.7c-1.1-1.3-2.4-2.5-3.7-3.7c-1.1-1.3-2.4-2.5-3.7-3.7c-1.1-1.3-2.4-2.5-3.7-3.7c-1.6-1.8-3.3-3.4-5.2-4.9
			c7,7.6,11.1,17.6,11.1,28c0,3.7-0.6,7.3-1.6,10.7c-1-1-2.1-1.8-3.3-2.6c0.5,0.3,1,0.6,1.5,0.9c-1.4-1.8-3.1-3.3-5.2-4.6
			c0.5,0.3,1,0.6,1.5,0.9c-1.4-1.8-3.1-3.3-5.2-4.6c0.5,0.3,1,0.6,1.5,0.9c-1.4-1.8-3.1-3.3-5.2-4.6c0.5,0.3,1,0.6,1.5,0.9
			c-1.4-1.8-3.1-3.3-5.2-4.6c0.5,0.3,1,0.6,1.5,0.9c-1.4-1.8-3.1-3.3-5.2-4.6c0.5,0.3,1,0.6,1.5,0.9c-1.4-1.8-3.1-3.3-5.2-4.6
			c0.5,0.3,1,0.6,1.5,0.9c-3.4-4.2-8.6-7.4-15.8-7.4c-2.8,0-5.1,0-7,0c-0.4-1.7-0.7-3.5-0.7-5.6c0-10.8,10.2-18.7,27.4-18.7
			c11.5,0,26.2,2.1,41.6,8.4l7.8-19c-1.5-0.6-3-1.2-4.5-1.7l0.8-2c-1.5-0.6-3-1.2-4.5-1.7l0.8-2c-1.5-0.6-3-1.2-4.5-1.7l0.8-2
			c-1.5-0.6-3-1.2-4.5-1.7l0.8-2c-1.5-0.6-3-1.2-4.5-1.7l0.8-2c-1.5-0.6-3-1.2-4.5-1.7l0.8-2c-1.5-0.6-3-1.2-4.5-1.7l0.8-2
			c-1.5-0.6-3-1.2-4.5-1.7l0.8-2c-1.8-0.7-3.6-1.4-5.3-2l-7,16.9c-15.4-6.3-30.1-8.4-41.6-8.4c-17.2,0-27.4,7.8-27.4,18.7
			c0,6.9,2.5,11.3,6.5,14c1,1.5,2.2,2.7,3.7,3.7c1,1.5,2.2,2.7,3.7,3.7c1,1.5,2.2,2.7,3.7,3.7c1,1.5,2.2,2.7,3.7,3.7
			c1,1.5,2.2,2.7,3.7,3.7c1,1.5,2.2,2.7,3.7,3.7c0.8,1.2,1.8,2.2,2.9,3.1c-5.2,0-5.2,0-5.2,0c-12-0.1-22-2.6-29.7-7.2
			c-3.7-7-8.6-13.3-14.3-18.6c-1.2-1.3-2.4-2.5-3.7-3.7c-1.2-1.3-2.4-2.5-3.7-3.7c-1.2-1.3-2.4-2.5-3.7-3.7
			c-1.2-1.3-2.4-2.5-3.7-3.7c-1.2-1.3-2.4-2.5-3.7-3.7c-1.2-1.3-2.4-2.5-3.7-3.7c-1.2-1.3-2.4-2.5-3.7-3.7c-1.9-2-3.9-4-6-5.7
			c12.5,12.6,20.3,30,20.3,49.2c0,4.2-0.3,9-0.9,11.5h-79.2c8.1-16.4,24.9-27.3,44.1-27.3c11.8,0,22.7,4.1,31.2,11.1
			c-3.3-3.4-7-6.3-11.2-8.7c2.7,1.4,5.2,3.1,7.5,5c-3.3-3.4-7-6.3-11.2-8.7c2.7,1.4,5.2,3.1,7.5,5c-3.3-3.4-7-6.3-11.2-8.7
			c2.7,1.4,5.2,3.1,7.5,5c-3.3-3.4-7-6.3-11.2-8.7c2.7,1.4,5.2,3.1,7.5,5c-3.3-3.4-7-6.3-11.2-8.7c2.7,1.4,5.2,3.1,7.5,5
			c-3.3-3.4-7-6.3-11.2-8.7c2.7,1.4,5.2,3.1,7.5,5c-3.3-3.4-7-6.3-11.2-8.7c2.7,1.4,5.2,3.1,7.5,5c-3.3-3.4-7-6.3-11.2-8.7
			c2.7,1.4,5.2,3.1,7.5,5c-9-9.4-21.7-15.2-35.7-15.2c-24.1,0-44.3,17.2-48.5,40.7h4.5c-0.3,1.2-0.6,2.4-0.8,3.7h4.5
			c-0.3,1.2-0.6,2.4-0.8,3.7h4.5c-0.3,1.2-0.6,2.4-0.8,3.7h4.5c-0.3,1.2-0.6,2.4-0.8,3.7h4.5c-0.3,1.2-0.6,2.4-0.8,3.7h4.5
			c-0.2,0.6-0.3,1.2-0.4,1.8h-21.8c2.3,10.1,7.6,18.7,14.9,25.3c1.2,1.3,2.4,2.5,3.7,3.7c1.2,1.3,2.4,2.5,3.7,3.7
			c1.2,1.3,2.4,2.5,3.7,3.7c1.2,1.3,2.4,2.5,3.7,3.7c1.2,1.3,2.4,2.5,3.7,3.7c1.2,1.3,2.4,2.5,3.7,3.7c1.2,1.3,2.4,2.5,3.7,3.7
			c1.8,2,3.7,3.8,5.7,5.4c-6-6.2-10.4-14-12.4-22.9h116.9c0.6-2.4,0.9-7.2,0.9-11.5c0-10.8-2.5-21-6.8-30.1c2.2,2.2,4.7,4.1,7.5,5.7
			c-1.8-1-3.5-2.1-5-3.3c2.4,2.7,5.4,5,8.7,6.9c-1.8-1-3.5-2.1-5-3.3c2.4,2.7,5.4,5,8.7,6.9c-1.8-1-3.5-2.1-5-3.3
			c2.4,2.7,5.4,5,8.7,6.9c-1.8-1-3.5-2.1-5-3.3c2.4,2.7,5.4,5,8.7,6.9c-1.8-1-3.5-2.1-5-3.3c2.4,2.7,5.4,5,8.7,6.9
			c-1.8-1-3.5-2.1-5-3.3c2.4,2.7,5.4,5,8.7,6.9c-1.8-1-3.5-2.1-5-3.3c8,8.8,21,13.6,37.8,13.8c0,0,0,0,15.4,0c1.7,0,3.3,0.2,4.8,0.5
			c-6.1,15.9-22.4,27.7-40.2,27.7h-37.1h-14.1h-88c-17.2,0-33-6.3-45.2-16.6c4.5,4.5,9.5,8.4,15,11.5c-4-2.2-7.9-4.9-11.4-7.9
			c4.5,4.5,9.5,8.4,15.1,11.5c-4.1-2.2-7.9-4.9-11.4-7.9c4.5,4.5,9.5,8.4,15,11.5c-4-2.2-7.9-4.9-11.4-7.9c4.5,4.5,9.5,8.4,15,11.5
			c-4-2.2-7.9-4.9-11.4-7.9c4.5,4.5,9.5,8.4,15,11.5c-4-2.2-7.9-4.9-11.4-7.9c4.5,4.5,9.5,8.4,15.1,11.5c-4.1-2.2-7.9-4.9-11.4-7.9
			c4.5,4.5,9.5,8.4,15,11.5c-4-2.2-7.9-4.9-11.4-7.9c4.5,4.5,9.5,8.4,15,11.5c-4-2.2-7.9-4.9-11.4-7.9C185.5,300,203,308,222.4,308
			h88h14.1h35.8h1.3h112.7c22.6,0,42.8-19,42.8-41.3C517.2,254.9,511.9,243.6,503.1,235.8z M285.2,207.3c0-0.1-0.1-0.2-0.1-0.2
			c1.3,1,2.7,2,4.2,2.8C287.9,209.1,286.5,208.3,285.2,207.3z"/>
	</g>
</g>
</svg>
